<mxfile host="Electron" agent="Mozilla/5.0 (Macintosh; Intel Mac OS X 10_15_7) AppleWebKit/537.36 (KHTML, like Gecko) draw.io/26.2.2 Chrome/134.0.6998.178 Electron/35.1.2 Safari/537.36" version="26.2.2">
  <diagram name="Page-1" id="i24xzCYeKZV1rkTH0XTW">
    <mxGraphModel dx="1667" dy="1191" grid="1" gridSize="10" guides="1" tooltips="1" connect="1" arrows="1" fold="1" page="1" pageScale="1" pageWidth="1100" pageHeight="850" math="0" shadow="0">
      <root>
        <mxCell id="0" />
        <mxCell id="1" parent="0" />
        <mxCell id="U9ftda_CDvz5WDsUi4ve-36" value="nb_candidate_commit_apply()" style="whiteSpace=wrap;html=1;fillColor=#e1d5e7;strokeColor=#9673a6;rounded=1;fillStyle=auto;strokeWidth=1;verticalAlign=top;" vertex="1" parent="1">
          <mxGeometry x="890" y="670" width="180" height="136.87" as="geometry" />
        </mxCell>
        <mxCell id="4hLhriEXD62TuEoW85Ij-29" value="&lt;i&gt;&lt;font style=&quot;font-size: 16px;&quot;&gt;Daemon CLI Parsing (lib/vty.c)&lt;/font&gt;&lt;/i&gt;" style="rounded=1;whiteSpace=wrap;html=1;dashed=1;fillColor=#dae8fc;strokeColor=default;fillStyle=solid;strokeWidth=1;perimeterSpacing=0;dashPattern=1 2;gradientColor=none;gradientDirection=radial;glass=0;shadow=0;opacity=50;verticalAlign=bottom;spacingBottom=30;" parent="1" vertex="1">
          <mxGeometry x="50" y="220" width="660" height="170" as="geometry" />
        </mxCell>
        <mxCell id="QL32OzfzetEIIOdSfswY-7" value="&lt;div style=&quot;font-size: 12px;&quot;&gt;mgmtd&lt;/div&gt;&lt;div style=&quot;font-size: 12px;&quot;&gt;(new config path)&lt;/div&gt;" style="rounded=1;whiteSpace=wrap;html=1;arcSize=24;fillColor=#dae8fc;strokeColor=#6c8ebf;shadow=1;comic=0;labelBackgroundColor=none;fontFamily=Verdana;fontSize=12;align=center;verticalAlign=top;fontStyle=1" parent="1" vertex="1">
          <mxGeometry x="230" y="40" width="490" height="270" as="geometry" />
        </mxCell>
        <mxCell id="QL32OzfzetEIIOdSfswY-13" value="&lt;div&gt;&lt;font&gt;vty_shared_&lt;/font&gt;&lt;/div&gt;&lt;div&gt;&lt;font&gt;candidate_config&lt;/font&gt;&lt;/div&gt;" style="shape=cylinder3;whiteSpace=wrap;html=1;boundedLbl=1;backgroundOutline=1;size=15;align=center;fillColor=#fff2cc;strokeColor=#d6b656;" parent="1" vertex="1">
          <mxGeometry x="136.25" y="70" width="97.5" height="130" as="geometry" />
        </mxCell>
        <mxCell id="QL32OzfzetEIIOdSfswY-14" value="&lt;div&gt;running_config&lt;/div&gt;" style="shape=cylinder3;whiteSpace=wrap;html=1;boundedLbl=1;backgroundOutline=1;size=15;align=center;fillColor=#d5e8d4;strokeColor=#82b366;" parent="1" vertex="1">
          <mxGeometry x="260" y="70" width="97.5" height="130" as="geometry" />
        </mxCell>
        <mxCell id="QL32OzfzetEIIOdSfswY-18" value="" style="group;shadow=0;" parent="1" vertex="1" connectable="0">
          <mxGeometry x="80" y="60" width="270" height="210" as="geometry" />
        </mxCell>
        <mxCell id="QL32OzfzetEIIOdSfswY-19" value="&lt;div style=&quot;font-size: 12px;&quot;&gt;B daemon&amp;nbsp;&lt;span style=&quot;background-color: transparent; color: light-dark(rgb(0, 0, 0), rgb(255, 255, 255));&quot;&gt;(old direct vty)&lt;/span&gt;&lt;/div&gt;" style="rounded=1;whiteSpace=wrap;html=1;arcSize=24;fillColor=#fad9d5;strokeColor=#ae4132;shadow=1;comic=0;labelBackgroundColor=none;fontFamily=Verdana;fontSize=12;align=center;verticalAlign=top;fontStyle=1" parent="QL32OzfzetEIIOdSfswY-18" vertex="1">
          <mxGeometry x="-10" width="270" height="190" as="geometry" />
        </mxCell>
        <mxCell id="QL32OzfzetEIIOdSfswY-20" value="&lt;div&gt;&lt;font&gt;vty_shared_&lt;/font&gt;&lt;/div&gt;&lt;div&gt;&lt;font&gt;candidate_config&lt;/font&gt;&lt;/div&gt;" style="shape=cylinder3;whiteSpace=wrap;html=1;boundedLbl=1;backgroundOutline=1;size=15;align=center;fillColor=#fff2cc;strokeColor=#d6b656;" parent="QL32OzfzetEIIOdSfswY-18" vertex="1">
          <mxGeometry x="20" y="30" width="97.5" height="130" as="geometry" />
        </mxCell>
        <mxCell id="QL32OzfzetEIIOdSfswY-21" value="&lt;div&gt;running_config&lt;/div&gt;" style="shape=cylinder3;whiteSpace=wrap;html=1;boundedLbl=1;backgroundOutline=1;size=15;align=center;fillColor=#d5e8d4;strokeColor=#82b366;" parent="QL32OzfzetEIIOdSfswY-18" vertex="1">
          <mxGeometry x="150" y="30" width="97.5" height="130" as="geometry" />
        </mxCell>
        <mxCell id="QL32OzfzetEIIOdSfswY-23" value="&lt;div style=&quot;font-size: 12px;&quot;&gt;A daemon (old direct vty)&lt;/div&gt;" style="rounded=1;whiteSpace=wrap;html=1;arcSize=24;fillColor=#fad9d5;strokeColor=#ae4132;shadow=1;comic=0;labelBackgroundColor=none;fontFamily=Verdana;fontSize=12;align=center;verticalAlign=top;fontStyle=1" parent="QL32OzfzetEIIOdSfswY-18" vertex="1">
          <mxGeometry x="-40" y="20" width="270" height="190" as="geometry" />
        </mxCell>
        <mxCell id="QL32OzfzetEIIOdSfswY-25" value="&lt;div&gt;running_config&lt;/div&gt;" style="shape=cylinder3;whiteSpace=wrap;html=1;boundedLbl=1;backgroundOutline=1;size=15;align=center;fillColor=#d5e8d4;strokeColor=#82b366;" parent="1" vertex="1">
          <mxGeometry x="200" y="110" width="97.5" height="130" as="geometry" />
        </mxCell>
        <mxCell id="4hLhriEXD62TuEoW85Ij-2" style="edgeStyle=orthogonalEdgeStyle;rounded=0;orthogonalLoop=1;jettySize=auto;html=1;entryX=1;entryY=0.5;entryDx=0;entryDy=0;" parent="1" target="4hLhriEXD62TuEoW85Ij-1" edge="1">
          <mxGeometry relative="1" as="geometry">
            <mxPoint x="648.75" y="160" as="sourcePoint" />
            <mxPoint x="487.5" y="585" as="targetPoint" />
            <Array as="points">
              <mxPoint x="790" y="160" />
              <mxPoint x="790" y="530" />
            </Array>
          </mxGeometry>
        </mxCell>
        <mxCell id="QL32OzfzetEIIOdSfswY-8" value="&lt;div&gt;&lt;font&gt;vty_mgmt_&lt;/font&gt;&lt;/div&gt;&lt;div&gt;&lt;font&gt;candidate_config&lt;/font&gt;&lt;/div&gt;" style="shape=cylinder3;whiteSpace=wrap;html=1;boundedLbl=1;backgroundOutline=1;size=15;align=center;fillColor=#fff2cc;strokeColor=#d6b656;" parent="1" vertex="1">
          <mxGeometry x="551.25" y="70" width="97.5" height="130" as="geometry" />
        </mxCell>
        <mxCell id="QL32OzfzetEIIOdSfswY-26" value="mm-&amp;gt;running" style="rounded=0;whiteSpace=wrap;html=1;" parent="1" vertex="1">
          <mxGeometry x="370" y="230" width="120" height="60" as="geometry" />
        </mxCell>
        <mxCell id="U9ftda_CDvz5WDsUi4ve-14" style="edgeStyle=orthogonalEdgeStyle;rounded=0;orthogonalLoop=1;jettySize=auto;html=1;entryX=1;entryY=0.5;entryDx=0;entryDy=0;" edge="1" parent="1" source="QL32OzfzetEIIOdSfswY-27" target="QL32OzfzetEIIOdSfswY-26">
          <mxGeometry relative="1" as="geometry" />
        </mxCell>
        <mxCell id="QL32OzfzetEIIOdSfswY-27" value="mm-&amp;gt;candidate" style="rounded=0;whiteSpace=wrap;html=1;" parent="1" vertex="1">
          <mxGeometry x="540" y="230" width="120" height="60" as="geometry" />
        </mxCell>
        <mxCell id="4hLhriEXD62TuEoW85Ij-1" value="vty_config_entry()" style="rounded=1;whiteSpace=wrap;html=1;fillColor=#f8cecc;strokeColor=#b85450;fillStyle=auto;strokeWidth=3;" parent="1" vertex="1">
          <mxGeometry x="315" y="500" width="130" height="60" as="geometry" />
        </mxCell>
        <mxCell id="4hLhriEXD62TuEoW85Ij-3" style="edgeStyle=orthogonalEdgeStyle;rounded=0;orthogonalLoop=1;jettySize=auto;html=1;entryX=0;entryY=0.5;entryDx=0;entryDy=0;" parent="1" source="QL32OzfzetEIIOdSfswY-24" target="4hLhriEXD62TuEoW85Ij-1" edge="1">
          <mxGeometry relative="1" as="geometry">
            <mxPoint x="120" y="260" as="sourcePoint" />
            <mxPoint x="320" y="600" as="targetPoint" />
            <Array as="points">
              <mxPoint x="120" y="530" />
            </Array>
          </mxGeometry>
        </mxCell>
        <mxCell id="QL32OzfzetEIIOdSfswY-24" value="&lt;div&gt;&lt;font&gt;vty_shared_&lt;/font&gt;&lt;/div&gt;&lt;div&gt;&lt;font&gt;candidate_config&lt;/font&gt;&lt;/div&gt;" style="shape=cylinder3;whiteSpace=wrap;html=1;boundedLbl=1;backgroundOutline=1;size=15;align=center;fillColor=#fff2cc;strokeColor=#d6b656;" parent="1" vertex="1">
          <mxGeometry x="70" y="110" width="97.5" height="130" as="geometry" />
        </mxCell>
        <mxCell id="4hLhriEXD62TuEoW85Ij-8" style="edgeStyle=orthogonalEdgeStyle;rounded=0;orthogonalLoop=1;jettySize=auto;html=1;" parent="1" source="4hLhriEXD62TuEoW85Ij-4" target="4hLhriEXD62TuEoW85Ij-7" edge="1">
          <mxGeometry relative="1" as="geometry" />
        </mxCell>
        <mxCell id="4hLhriEXD62TuEoW85Ij-4" value="CLI: config_exclusive()&lt;div&gt;(northbound_cli.c)&lt;/div&gt;" style="rounded=1;whiteSpace=wrap;html=1;fillColor=#d0cee2;strokeColor=#56517e;" parent="1" vertex="1">
          <mxGeometry x="910" y="40" width="140" height="50" as="geometry" />
        </mxCell>
        <mxCell id="4hLhriEXD62TuEoW85Ij-5" value="CLI: config_private()&lt;div&gt;(northbound_cli.c)&lt;/div&gt;" style="rounded=1;whiteSpace=wrap;html=1;fillColor=#d0cee2;strokeColor=#56517e;" parent="1" vertex="1">
          <mxGeometry x="760" y="45" width="140" height="40" as="geometry" />
        </mxCell>
        <mxCell id="4hLhriEXD62TuEoW85Ij-6" value="vty_config_entry()" style="rounded=1;whiteSpace=wrap;html=1;fillColor=#f8cecc;strokeColor=#b85450;fillStyle=auto;strokeWidth=3;" parent="1" vertex="1">
          <mxGeometry x="860" y="230" width="120" height="60" as="geometry" />
        </mxCell>
        <mxCell id="4hLhriEXD62TuEoW85Ij-10" style="edgeStyle=orthogonalEdgeStyle;rounded=0;orthogonalLoop=1;jettySize=auto;html=1;" parent="1" source="4hLhriEXD62TuEoW85Ij-7" target="4hLhriEXD62TuEoW85Ij-6" edge="1">
          <mxGeometry relative="1" as="geometry" />
        </mxCell>
        <mxCell id="4hLhriEXD62TuEoW85Ij-7" value="&lt;div&gt;private_config&lt;/div&gt;" style="shape=cylinder3;whiteSpace=wrap;html=1;boundedLbl=1;backgroundOutline=1;size=15;align=center;fillColor=#fff2cc;strokeColor=#d6b656;" parent="1" vertex="1">
          <mxGeometry x="871.25" y="130" width="97.5" height="70" as="geometry" />
        </mxCell>
        <mxCell id="4hLhriEXD62TuEoW85Ij-9" style="edgeStyle=orthogonalEdgeStyle;rounded=0;orthogonalLoop=1;jettySize=auto;html=1;" parent="1" source="4hLhriEXD62TuEoW85Ij-5" edge="1">
          <mxGeometry relative="1" as="geometry">
            <mxPoint x="910" y="130" as="targetPoint" />
            <Array as="points">
              <mxPoint x="850" y="110" />
              <mxPoint x="911" y="110" />
            </Array>
          </mxGeometry>
        </mxCell>
        <mxCell id="4hLhriEXD62TuEoW85Ij-15" style="edgeStyle=orthogonalEdgeStyle;rounded=0;orthogonalLoop=1;jettySize=auto;html=1;entryX=0.5;entryY=0;entryDx=0;entryDy=0;" parent="1" source="4hLhriEXD62TuEoW85Ij-11" target="4hLhriEXD62TuEoW85Ij-1" edge="1">
          <mxGeometry relative="1" as="geometry" />
        </mxCell>
        <mxCell id="4hLhriEXD62TuEoW85Ij-20" value="2" style="edgeStyle=orthogonalEdgeStyle;rounded=0;orthogonalLoop=1;jettySize=auto;html=1;" parent="1" source="4hLhriEXD62TuEoW85Ij-11" target="4hLhriEXD62TuEoW85Ij-1" edge="1">
          <mxGeometry relative="1" as="geometry" />
        </mxCell>
        <mxCell id="U9ftda_CDvz5WDsUi4ve-16" style="edgeStyle=orthogonalEdgeStyle;rounded=0;orthogonalLoop=1;jettySize=auto;html=1;entryX=0;entryY=0.5;entryDx=0;entryDy=0;startArrow=classic;startFill=1;strokeWidth=2;" edge="1" parent="1" source="4hLhriEXD62TuEoW85Ij-11" target="U9ftda_CDvz5WDsUi4ve-15">
          <mxGeometry relative="1" as="geometry" />
        </mxCell>
        <mxCell id="U9ftda_CDvz5WDsUi4ve-17" value="1" style="edgeLabel;html=1;align=center;verticalAlign=middle;resizable=0;points=[];" vertex="1" connectable="0" parent="U9ftda_CDvz5WDsUi4ve-16">
          <mxGeometry x="0.0305" y="2" relative="1" as="geometry">
            <mxPoint as="offset" />
          </mxGeometry>
        </mxCell>
        <mxCell id="U9ftda_CDvz5WDsUi4ve-19" value="1: (mgmtd only)" style="edgeLabel;html=1;align=center;verticalAlign=middle;resizable=0;points=[];" vertex="1" connectable="0" parent="U9ftda_CDvz5WDsUi4ve-16">
          <mxGeometry x="0.0074" y="1" relative="1" as="geometry">
            <mxPoint as="offset" />
          </mxGeometry>
        </mxCell>
        <mxCell id="4hLhriEXD62TuEoW85Ij-11" value="CLI: config_terminal()&lt;div&gt;(command.c)&lt;/div&gt;" style="rounded=1;whiteSpace=wrap;html=1;fillColor=#d0cee2;strokeColor=#56517e;" parent="1" vertex="1">
          <mxGeometry x="315" y="420" width="130" height="40" as="geometry" />
        </mxCell>
        <mxCell id="4hLhriEXD62TuEoW85Ij-31" style="edgeStyle=orthogonalEdgeStyle;rounded=0;orthogonalLoop=1;jettySize=auto;html=1;" parent="1" source="4hLhriEXD62TuEoW85Ij-29" target="4hLhriEXD62TuEoW85Ij-11" edge="1">
          <mxGeometry relative="1" as="geometry" />
        </mxCell>
        <mxCell id="4hLhriEXD62TuEoW85Ij-27" value="&lt;div style=&quot;font-size: 12px;&quot;&gt;&lt;br&gt;&lt;/div&gt;" style="rounded=1;whiteSpace=wrap;html=1;arcSize=12;fillColor=#dae8fc;strokeColor=#6c8ebf;shadow=1;comic=0;labelBackgroundColor=none;fontFamily=Verdana;fontSize=12;align=center;verticalAlign=top;fontStyle=1;container=0;" parent="1" vertex="1">
          <mxGeometry x="50" y="600" width="550" height="190" as="geometry" />
        </mxCell>
        <mxCell id="4hLhriEXD62TuEoW85Ij-18" value="vty_read_config()" style="rounded=1;whiteSpace=wrap;html=1;fillColor=#e1d5e7;strokeColor=#9673a6;" parent="1" vertex="1">
          <mxGeometry x="260" y="670" width="130" height="40" as="geometry" />
        </mxCell>
        <mxCell id="4hLhriEXD62TuEoW85Ij-21" value="vty_apply_config()" style="rounded=1;whiteSpace=wrap;html=1;fillColor=#e1d5e7;strokeColor=#9673a6;" parent="1" vertex="1">
          <mxGeometry x="260" y="730" width="130" height="40" as="geometry" />
        </mxCell>
        <mxCell id="4hLhriEXD62TuEoW85Ij-22" value="&lt;b&gt;&lt;i&gt;&quot;copy FILE to rrunning&quot;&lt;/i&gt;&lt;/b&gt;" style="rounded=1;whiteSpace=wrap;html=1;fillColor=#e1d5e7;strokeColor=#9673a6;" parent="1" vertex="1">
          <mxGeometry x="63.75" y="730" width="150" height="40" as="geometry" />
        </mxCell>
        <mxCell id="4hLhriEXD62TuEoW85Ij-23" value="&lt;b&gt;&lt;i&gt;vtysh_main.c: main()&lt;/i&gt;&lt;/b&gt;" style="rounded=1;whiteSpace=wrap;html=1;fillColor=#e1d5e7;strokeColor=#9673a6;" parent="1" vertex="1">
          <mxGeometry x="430" y="730" width="150" height="40" as="geometry" />
        </mxCell>
        <mxCell id="4hLhriEXD62TuEoW85Ij-19" style="edgeStyle=orthogonalEdgeStyle;rounded=0;orthogonalLoop=1;jettySize=auto;html=1;" parent="1" source="4hLhriEXD62TuEoW85Ij-18" target="4hLhriEXD62TuEoW85Ij-16" edge="1">
          <mxGeometry relative="1" as="geometry" />
        </mxCell>
        <mxCell id="4hLhriEXD62TuEoW85Ij-26" style="edgeStyle=orthogonalEdgeStyle;rounded=0;orthogonalLoop=1;jettySize=auto;html=1;" parent="1" source="4hLhriEXD62TuEoW85Ij-21" target="4hLhriEXD62TuEoW85Ij-18" edge="1">
          <mxGeometry relative="1" as="geometry" />
        </mxCell>
        <mxCell id="4hLhriEXD62TuEoW85Ij-25" style="edgeStyle=orthogonalEdgeStyle;rounded=0;orthogonalLoop=1;jettySize=auto;html=1;" parent="1" source="4hLhriEXD62TuEoW85Ij-22" target="4hLhriEXD62TuEoW85Ij-21" edge="1">
          <mxGeometry relative="1" as="geometry" />
        </mxCell>
        <mxCell id="4hLhriEXD62TuEoW85Ij-24" style="edgeStyle=orthogonalEdgeStyle;rounded=0;orthogonalLoop=1;jettySize=auto;html=1;" parent="1" source="4hLhriEXD62TuEoW85Ij-23" target="4hLhriEXD62TuEoW85Ij-21" edge="1">
          <mxGeometry relative="1" as="geometry" />
        </mxCell>
        <mxCell id="4hLhriEXD62TuEoW85Ij-34" value="VTYSH" style="rounded=1;whiteSpace=wrap;html=1;fillColor=#f5f5f5;strokeColor=default;fontColor=#333333;opacity=50;dashed=1;dashPattern=8 8;" parent="1" vertex="1">
          <mxGeometry x="500" y="610" width="90" height="30" as="geometry" />
        </mxCell>
        <mxCell id="U9ftda_CDvz5WDsUi4ve-12" value="" style="curved=0;endArrow=none;html=1;rounded=0;entryX=0.5;entryY=1;entryDx=0;entryDy=0;exitX=0.25;exitY=1;exitDx=0;exitDy=0;dashed=1;startFill=0;" edge="1" parent="1">
          <mxGeometry width="50" height="50" relative="1" as="geometry">
            <mxPoint x="215" y="400" as="sourcePoint" />
            <mxPoint x="380" y="400" as="targetPoint" />
            <Array as="points">
              <mxPoint x="215" y="370" />
              <mxPoint x="380" y="370" />
            </Array>
          </mxGeometry>
        </mxCell>
        <mxCell id="4hLhriEXD62TuEoW85Ij-16" value="vty_read_file()&lt;div&gt;&lt;b&gt;&lt;i&gt;&quot;conf term file-lock&quot;&lt;/i&gt;&lt;/b&gt;&lt;/div&gt;" style="rounded=1;whiteSpace=wrap;html=1;fillColor=#e1d5e7;strokeColor=#9673a6;" parent="1" vertex="1">
          <mxGeometry x="260" y="610" width="130" height="40" as="geometry" />
        </mxCell>
        <mxCell id="4hLhriEXD62TuEoW85Ij-17" style="edgeStyle=orthogonalEdgeStyle;rounded=0;orthogonalLoop=1;jettySize=auto;html=1;jumpStyle=line;exitX=0.5;exitY=0;exitDx=0;exitDy=0;shadow=1;" parent="1" source="4hLhriEXD62TuEoW85Ij-16" edge="1">
          <mxGeometry relative="1" as="geometry">
            <Array as="points">
              <mxPoint x="325" y="580" />
              <mxPoint x="215" y="580" />
            </Array>
            <mxPoint x="395" y="670" as="sourcePoint" />
            <mxPoint x="215" y="390" as="targetPoint" />
          </mxGeometry>
        </mxCell>
        <mxCell id="QL32OzfzetEIIOdSfswY-28" style="edgeStyle=orthogonalEdgeStyle;rounded=0;orthogonalLoop=1;jettySize=auto;html=1;startArrow=classic;startFill=1;endArrow=oval;endFill=1;" parent="1" source="QL32OzfzetEIIOdSfswY-14" target="QL32OzfzetEIIOdSfswY-26" edge="1">
          <mxGeometry relative="1" as="geometry" />
        </mxCell>
        <mxCell id="QL32OzfzetEIIOdSfswY-29" style="edgeStyle=orthogonalEdgeStyle;rounded=0;orthogonalLoop=1;jettySize=auto;html=1;endArrow=oval;startFill=1;startArrow=classic;endFill=1;" parent="1" source="QL32OzfzetEIIOdSfswY-8" target="QL32OzfzetEIIOdSfswY-27" edge="1">
          <mxGeometry relative="1" as="geometry" />
        </mxCell>
        <mxCell id="U9ftda_CDvz5WDsUi4ve-15" value="&lt;div&gt;lock mm-&amp;gt;candidate&lt;/div&gt;" style="rounded=1;whiteSpace=wrap;html=1;fillColor=#e1d5e7;strokeColor=#9673a6;" vertex="1" parent="1">
          <mxGeometry x="580" y="420" width="130" height="40" as="geometry" />
        </mxCell>
        <mxCell id="U9ftda_CDvz5WDsUi4ve-20" value="If we don&#39;t lock for non-mgmtd then&lt;div&gt;multiple vtysh conf t are allowed!&lt;/div&gt;" style="text;html=1;align=center;verticalAlign=middle;resizable=0;points=[];autosize=1;strokeColor=none;fillColor=none;fontStyle=3;fontColor=#FF0000;" vertex="1" parent="1">
          <mxGeometry x="425" y="463" width="210" height="40" as="geometry" />
        </mxCell>
        <mxCell id="U9ftda_CDvz5WDsUi4ve-24" value="" style="edgeStyle=orthogonalEdgeStyle;rounded=0;orthogonalLoop=1;jettySize=auto;html=1;" edge="1" parent="1" source="U9ftda_CDvz5WDsUi4ve-21" target="U9ftda_CDvz5WDsUi4ve-23">
          <mxGeometry relative="1" as="geometry" />
        </mxCell>
        <mxCell id="U9ftda_CDvz5WDsUi4ve-21" value="vty_config_node_exit()" style="rounded=1;whiteSpace=wrap;html=1;fillColor=#f8cecc;strokeColor=#b85450;fillStyle=auto;strokeWidth=3;" vertex="1" parent="1">
          <mxGeometry x="830" y="340" width="180" height="45" as="geometry" />
        </mxCell>
        <mxCell id="U9ftda_CDvz5WDsUi4ve-26" value="" style="edgeStyle=orthogonalEdgeStyle;rounded=0;orthogonalLoop=1;jettySize=auto;html=1;" edge="1" parent="1" source="U9ftda_CDvz5WDsUi4ve-23" target="U9ftda_CDvz5WDsUi4ve-25">
          <mxGeometry relative="1" as="geometry" />
        </mxCell>
        <mxCell id="U9ftda_CDvz5WDsUi4ve-29" value="pendign == true" style="edgeLabel;html=1;align=center;verticalAlign=middle;resizable=0;points=[];" vertex="1" connectable="0" parent="U9ftda_CDvz5WDsUi4ve-26">
          <mxGeometry x="-0.0182" y="-3" relative="1" as="geometry">
            <mxPoint as="offset" />
          </mxGeometry>
        </mxCell>
        <mxCell id="U9ftda_CDvz5WDsUi4ve-23" value="&lt;div&gt;&amp;nbsp; &amp;nbsp;nb_cli_pending_commit_check()&lt;/div&gt;&lt;div&gt;&lt;br&gt;&lt;/div&gt;" style="whiteSpace=wrap;html=1;fillColor=#e1d5e7;strokeColor=#9673a6;rounded=1;fillStyle=auto;strokeWidth=1;" vertex="1" parent="1">
          <mxGeometry x="830" y="420" width="180" height="35" as="geometry" />
        </mxCell>
        <mxCell id="U9ftda_CDvz5WDsUi4ve-28" value="" style="edgeStyle=orthogonalEdgeStyle;rounded=0;orthogonalLoop=1;jettySize=auto;html=1;" edge="1" parent="1" target="U9ftda_CDvz5WDsUi4ve-27">
          <mxGeometry relative="1" as="geometry">
            <mxPoint x="920" y="570" as="sourcePoint" />
            <Array as="points">
              <mxPoint x="920" y="569" />
              <mxPoint x="920" y="596" />
              <mxPoint x="910" y="596" />
            </Array>
          </mxGeometry>
        </mxCell>
        <mxCell id="U9ftda_CDvz5WDsUi4ve-35" style="edgeStyle=orthogonalEdgeStyle;rounded=0;orthogonalLoop=1;jettySize=auto;html=1;" edge="1" parent="1" source="U9ftda_CDvz5WDsUi4ve-27" target="U9ftda_CDvz5WDsUi4ve-36">
          <mxGeometry relative="1" as="geometry">
            <mxPoint x="920" y="574.37" as="sourcePoint" />
            <mxPoint x="1000" y="610.0000000000001" as="targetPoint" />
            <Array as="points">
              <mxPoint x="960" y="635" />
              <mxPoint x="980" y="635" />
            </Array>
          </mxGeometry>
        </mxCell>
        <mxCell id="U9ftda_CDvz5WDsUi4ve-47" value="success" style="edgeLabel;html=1;align=center;verticalAlign=middle;resizable=0;points=[];" vertex="1" connectable="0" parent="U9ftda_CDvz5WDsUi4ve-35">
          <mxGeometry x="-0.275" y="1" relative="1" as="geometry">
            <mxPoint as="offset" />
          </mxGeometry>
        </mxCell>
        <mxCell id="U9ftda_CDvz5WDsUi4ve-51" style="edgeStyle=orthogonalEdgeStyle;rounded=0;orthogonalLoop=1;jettySize=auto;html=1;" edge="1" parent="1" source="U9ftda_CDvz5WDsUi4ve-25" target="U9ftda_CDvz5WDsUi4ve-27">
          <mxGeometry relative="1" as="geometry" />
        </mxCell>
        <mxCell id="U9ftda_CDvz5WDsUi4ve-25" value="nb_cli_classic_commit()" style="whiteSpace=wrap;html=1;fillColor=#e1d5e7;strokeColor=#9673a6;rounded=1;fillStyle=auto;strokeWidth=1;" vertex="1" parent="1">
          <mxGeometry x="830" y="500" width="180" height="37.5" as="geometry" />
        </mxCell>
        <mxCell id="U9ftda_CDvz5WDsUi4ve-31" value="" style="edgeStyle=orthogonalEdgeStyle;rounded=0;orthogonalLoop=1;jettySize=auto;html=1;" edge="1" parent="1" source="U9ftda_CDvz5WDsUi4ve-27" target="U9ftda_CDvz5WDsUi4ve-30">
          <mxGeometry relative="1" as="geometry">
            <Array as="points">
              <mxPoint x="880" y="635" />
              <mxPoint x="781" y="635" />
            </Array>
          </mxGeometry>
        </mxCell>
        <mxCell id="U9ftda_CDvz5WDsUi4ve-32" value="fail" style="edgeLabel;html=1;align=center;verticalAlign=middle;resizable=0;points=[];" vertex="1" connectable="0" parent="U9ftda_CDvz5WDsUi4ve-31">
          <mxGeometry x="-0.055" y="-3" relative="1" as="geometry">
            <mxPoint as="offset" />
          </mxGeometry>
        </mxCell>
        <mxCell id="U9ftda_CDvz5WDsUi4ve-27" value="nb_candidate_commit_prepare()" style="whiteSpace=wrap;html=1;fillColor=#e1d5e7;strokeColor=#9673a6;rounded=1;fillStyle=auto;strokeWidth=1;" vertex="1" parent="1">
          <mxGeometry x="830" y="566.25" width="180" height="33.75" as="geometry" />
        </mxCell>
        <mxCell id="U9ftda_CDvz5WDsUi4ve-30" value="" style="whiteSpace=wrap;html=1;fillColor=#e1d5e7;strokeColor=#9673a6;rounded=1;fillStyle=auto;strokeWidth=1;" vertex="1" parent="1">
          <mxGeometry x="691.25" y="670.01" width="180" height="99.99" as="geometry" />
        </mxCell>
        <mxCell id="U9ftda_CDvz5WDsUi4ve-40" style="edgeStyle=orthogonalEdgeStyle;rounded=0;orthogonalLoop=1;jettySize=auto;html=1;" edge="1" parent="1" source="U9ftda_CDvz5WDsUi4ve-38" target="U9ftda_CDvz5WDsUi4ve-39">
          <mxGeometry relative="1" as="geometry" />
        </mxCell>
        <mxCell id="U9ftda_CDvz5WDsUi4ve-38" value="&lt;div&gt;running&lt;/div&gt;" style="shape=cylinder3;whiteSpace=wrap;html=1;boundedLbl=1;backgroundOutline=1;size=15;align=center;fillColor=#d5e8d4;strokeColor=#82b366;" vertex="1" parent="1">
          <mxGeometry x="706.25" y="685" width="50" height="70" as="geometry" />
        </mxCell>
        <mxCell id="U9ftda_CDvz5WDsUi4ve-39" value="&lt;div&gt;private or&lt;/div&gt;&lt;div&gt;candidate&lt;/div&gt;&lt;div&gt;&lt;br&gt;&lt;/div&gt;" style="shape=cylinder3;whiteSpace=wrap;html=1;boundedLbl=1;backgroundOutline=1;size=15;align=center;fillColor=#fff2cc;strokeColor=#d6b656;" vertex="1" parent="1">
          <mxGeometry x="796.25" y="685" width="60" height="70" as="geometry" />
        </mxCell>
        <mxCell id="U9ftda_CDvz5WDsUi4ve-42" value="&lt;div&gt;running&lt;/div&gt;" style="shape=cylinder3;whiteSpace=wrap;html=1;boundedLbl=1;backgroundOutline=1;size=15;align=center;fillColor=#d5e8d4;strokeColor=#82b366;" vertex="1" parent="1">
          <mxGeometry x="990" y="715" width="50" height="70" as="geometry" />
        </mxCell>
        <mxCell id="U9ftda_CDvz5WDsUi4ve-41" value="&lt;div&gt;private or&lt;/div&gt;&lt;div&gt;candidate&lt;/div&gt;&lt;div&gt;&lt;br&gt;&lt;/div&gt;" style="shape=cylinder3;whiteSpace=wrap;html=1;boundedLbl=1;backgroundOutline=1;size=15;align=center;fillColor=#fff2cc;strokeColor=#d6b656;" vertex="1" parent="1">
          <mxGeometry x="900" y="715" width="65" height="70" as="geometry" />
        </mxCell>
        <mxCell id="U9ftda_CDvz5WDsUi4ve-44" style="edgeStyle=orthogonalEdgeStyle;rounded=0;orthogonalLoop=1;jettySize=auto;html=1;exitX=0.5;exitY=1;exitDx=0;exitDy=0;" edge="1" parent="1" source="U9ftda_CDvz5WDsUi4ve-36" target="U9ftda_CDvz5WDsUi4ve-36">
          <mxGeometry relative="1" as="geometry" />
        </mxCell>
        <mxCell id="U9ftda_CDvz5WDsUi4ve-48" value="" style="edgeStyle=orthogonalEdgeStyle;rounded=0;orthogonalLoop=1;jettySize=auto;html=1;" edge="1" parent="1" source="U9ftda_CDvz5WDsUi4ve-41" target="U9ftda_CDvz5WDsUi4ve-42">
          <mxGeometry relative="1" as="geometry">
            <mxPoint x="960" y="705" as="sourcePoint" />
            <mxPoint x="990" y="705" as="targetPoint" />
          </mxGeometry>
        </mxCell>
        <mxCell id="U9ftda_CDvz5WDsUi4ve-52" value="&lt;b&gt;&lt;font style=&quot;font-size: 15px;&quot;&gt;Config Datastore Non-Implicit Commit Cleanup&lt;/font&gt;&lt;/b&gt;" style="text;html=1;align=center;verticalAlign=middle;resizable=0;points=[];autosize=1;strokeColor=none;fillColor=none;" vertex="1" parent="1">
          <mxGeometry x="400" y="10" width="360" height="30" as="geometry" />
        </mxCell>
      </root>
    </mxGraphModel>
  </diagram>
</mxfile>
